# xmcd
#
# Track frame offsets:
#	150
#	19352
#	35979
#	57340
#	71374
#	91055
#	107783
#	122064
#	139162
#	156729
#
# Disc length: 2333 seconds
#
# Revision: 0
# Processed by: cddbd v1.5.2PL0 Copyright (c) Steve Scherf et al.
# Submitted via: audiograbber 1.83.01
#
DISCID=92091b0a
DTITLE=Deadstring Brothers - Starving Winter Report
DYEAR=2006
DGENRE=Country Rock
TTITLE0=Sacred Heart
TTITLE1=Toe The Line
TTITLE2=Lights Go Out
TTITLE3=Get Up Jake
TTITLE4=Talkin' Born Blues
TTITLE5=Blindfolded
TTITLE6=Moonlight Only Knows
TTITLE7='Til The Bleeding Stops
TTITLE8=It's All Over Now
TTITLE9=Lonely Days
EXTD=
EXTT0=
EXTT1=
EXTT2=
EXTT3=
EXTT4=
EXTT5=
EXTT6=
EXTT7=
EXTT8=
EXTT9=
PLAYORDER=
